<svg height="512" viewBox="0 0 512 512" width="512" xmlns="http://www.w3.org/2000/svg"><g id="Filledoutline"><path d="m312 488h-112l4.36-48 3.24-35.58h96.8l3.24 35.58z" fill="#cacac9"/><path d="m307.64 440h-103.28l3.24-35.58h96.8z" fill="#b3b1b3"/><rect fill="#0093b9" height="400" rx="24" width="464" x="24" y="24"/><path d="m24 360h464a0 0 0 0 1 0 0v40a24 24 0 0 1 -24 24h-416a24 24 0 0 1 -24-24v-40a0 0 0 0 1 0 0z" fill="#cacac9"/><path d="m24 24h464a0 0 0 0 1 0 0v40a24 24 0 0 1 -24 24h-416a24 24 0 0 1 -24-24v-40a0 0 0 0 1 0 0z" fill="#cacac9" transform="matrix(-1 0 0 -1 512 112)"/><path d="m40 104h432v240h-432z" fill="#2da4c4"/><g fill="#f8bc1e"><path d="m463.49 389.864a89.3 89.3 0 0 0 -.361-29.859l24.188-13.357-13.291-31.014-26.367 8.307a89.075 89.075 0 0 0 -21.362-20.85l7.661-26.56-31.329-12.531-12.765 24.51a89.3 89.3 0 0 0 -29.859.361l-13.357-24.188-31.014 13.291 8.307 26.367a89.075 89.075 0 0 0 -20.85 21.362l-26.56-7.661-12.531 31.329 24.51 12.765a89.3 89.3 0 0 0 .361 29.864l-24.188 13.357 13.291 31.014 26.367-8.307a89.075 89.075 0 0 0 21.362 20.85l-7.661 26.56 31.329 12.526 12.765-24.51a89.3 89.3 0 0 0 29.864-.361l13.357 24.188 31.014-13.291-8.307-26.367a89.075 89.075 0 0 0 20.85-21.362l26.56 7.661 12.526-31.329zm-87.49 34.136a48 48 0 1 1 48-48 48 48 0 0 1 -48 48z"/><path d="m104 208h112v96h-112z"/><path d="m88 184h144v32h-144z"/></g><path d="m104 216h112v16h-112z" fill="#f5a922"/><path d="m48 48h16v16h-16z"/><path d="m80 48h16v16h-16z"/><path d="m112 48h16v16h-16z"/><path d="m213.124 432h34.876v-16h-200a16.019 16.019 0 0 1 -16-16v-32h208v-16h-208v-256h448v200h16v-248a32.036 32.036 0 0 0 -32-32h-416a32.036 32.036 0 0 0 -32 32v352a32.036 32.036 0 0 0 32 32h149.058l-4.358 48h-24.7v16h128v-16h-87.24zm-165.124-400h416a16.019 16.019 0 0 1 16 16v32h-448v-32a16.019 16.019 0 0 1 16-16z"/><path d="m312 160h16v16h-16z"/><path d="m344 160h96v16h-96z"/><path d="m296 192h144v16h-144z"/><path d="m296 224h144v16h-144z"/><path d="m456 120h-184a8 8 0 0 0 -5.657 2.343l-32 32 11.314 11.314 29.656-29.657h180.687z"/><path d="m491.7 395.533-19.577-10.193c.3-3.106.449-6.23.449-9.34a97.661 97.661 0 0 0 -.7-11.682l19.316-10.668a8 8 0 0 0 3.486-10.154l-13.292-31.014a8 8 0 0 0 -9.761-4.482l-21.053 6.633a96.646 96.646 0 0 0 -15.041-14.681l6.118-21.208a8 8 0 0 0 -4.716-9.644l-31.329-12.528a8 8 0 0 0 -10.067 3.733l-10.193 19.572a97.634 97.634 0 0 0 -21.022.254l-10.668-19.316a8 8 0 0 0 -10.154-3.486l-31.014 13.292a8 8 0 0 0 -4.482 9.758l6.633 21.053a96.646 96.646 0 0 0 -14.681 15.041l-21.208-6.118a8 8 0 0 0 -9.644 4.716l-12.528 31.329a8 8 0 0 0 3.733 10.067l19.572 10.193c-.3 3.106-.449 6.23-.449 9.34a97.661 97.661 0 0 0 .7 11.682l-19.313 10.668a8 8 0 0 0 -3.486 10.154l13.292 31.014a8 8 0 0 0 9.758 4.482l21.053-6.633a96.646 96.646 0 0 0 15.041 14.681l-6.118 21.208a8 8 0 0 0 4.716 9.644l31.329 12.528a8 8 0 0 0 10.067-3.733l10.193-19.572a97.7 97.7 0 0 0 21.022-.254l10.668 19.316a8 8 0 0 0 10.154 3.486l31.014-13.292a8 8 0 0 0 4.482-9.758l-6.633-21.053a96.646 96.646 0 0 0 14.681-15.041l21.208 6.118a8 8 0 0 0 9.644-4.716l12.528-31.329a8 8 0 0 0 -3.728-10.067zm-20.966 28.732-19.6-5.655a8 8 0 0 0 -8.8 3.138 80.812 80.812 0 0 1 -18.976 19.442 8 8 0 0 0 -2.923 8.873l6.132 19.461-17.706 7.588-9.861-17.85a7.991 7.991 0 0 0 -8.438-4 81.707 81.707 0 0 1 -27.181.328 8 8 0 0 0 -8.338 4.208l-9.42 18.089-17.885-7.155 5.655-19.6a8 8 0 0 0 -3.138-8.8 80.812 80.812 0 0 1 -19.442-18.976 8 8 0 0 0 -8.873-2.923l-19.461 6.132-7.588-17.706 17.847-9.859a8 8 0 0 0 4-8.438 81.369 81.369 0 0 1 -.328-27.181 8 8 0 0 0 -4.208-8.338l-18.089-9.42 7.155-17.885 19.6 5.655a8 8 0 0 0 8.8-3.138 80.812 80.812 0 0 1 18.976-19.442 8 8 0 0 0 2.923-8.873l-6.132-19.461 17.706-7.588 9.859 17.847a7.993 7.993 0 0 0 8.438 4 81.707 81.707 0 0 1 27.181-.328 8 8 0 0 0 8.338-4.208l9.42-18.089 17.885 7.155-5.655 19.6a8 8 0 0 0 3.138 8.8 80.812 80.812 0 0 1 19.442 18.976 8 8 0 0 0 8.873 2.923l19.461-6.132 7.588 17.706-17.847 9.859a8 8 0 0 0 -4 8.438 81.369 81.369 0 0 1 .328 27.181 8 8 0 0 0 4.208 8.338l18.089 9.42z"/><path d="m376 320a56 56 0 1 0 56 56 56.063 56.063 0 0 0 -56-56zm0 96a40 40 0 1 1 40-40 40.045 40.045 0 0 1 -40 40z"/><path d="m104 312h112a8 8 0 0 0 8-8v-80h8a8 8 0 0 0 8-8v-32a8 8 0 0 0 -8-8h-20.3a31.978 31.978 0 0 0 -51.7-37.132 31.978 31.978 0 0 0 -51.695 37.132h-20.305a8 8 0 0 0 -8 8v32a8 8 0 0 0 8 8h8v80a8 8 0 0 0 8 8zm104-16h-96v-72h24v48h16v-48h16v32h16v-32h24zm-40-104v16h-16v-16zm56 16h-40v-16h40zm-40-64a16 16 0 0 1 0 32h-16v-16a16.019 16.019 0 0 1 16-16zm-64 16a16 16 0 0 1 32 0v16h-16a16.019 16.019 0 0 1 -16-16zm-24 32h40v16h-40z"/></g></svg>