<svg
   xmlns:dc="http://purl.org/dc/elements/1.1/"
   xmlns:cc="http://creativecommons.org/ns#"
   xmlns:rdf="http://www.w3.org/1999/02/22-rdf-syntax-ns#"
   xmlns:svg="http://www.w3.org/2000/svg"
   xmlns="http://www.w3.org/2000/svg"
   xmlns:sodipodi="http://sodipodi.sourceforge.net/DTD/sodipodi-0.dtd"
   xmlns:inkscape="http://www.inkscape.org/namespaces/inkscape"
   inkscape:version="1.0 (4035a4fb49, 2020-05-01)"
   sodipodi:docname="mongodb.svg"
   id="svg202"
   version="1.1"
   width="512"
   viewBox="0 0 64 64"
   height="512">
  <sodipodi:namedview
     inkscape:current-layer="svg202"
     inkscape:window-maximized="1"
     inkscape:window-y="-9"
     inkscape:window-x="2391"
     inkscape:cy="256"
     inkscape:cx="256"
     inkscape:zoom="1.5644531"
     showgrid="false"
     id="namedview141"
     inkscape:window-height="1001"
     inkscape:window-width="1920"
     inkscape:pageshadow="2"
     inkscape:pageopacity="0"
     guidetolerance="10"
     gridtolerance="10"
     objecttolerance="10"
     borderopacity="1"
     bordercolor="#666666"
     pagecolor="#ffffff" />
  <metadata
     id="metadata208">
    <rdf:RDF>
      <cc:Work
         rdf:about="">
        <dc:format>image/svg+xml</dc:format>
        <dc:type
           rdf:resource="http://purl.org/dc/dcmitype/StillImage" />
        <dc:title></dc:title>
      </cc:Work>
    </rdf:RDF>
  </metadata>
  <defs
     id="defs206" />
  <g
     data-name="Layer 34"
     id="Layer_34">
    <g
       data-name="database server"
       id="database_server">
      <rect
         id="rect110"
         y="19"
         x="3"
         width="40"
         rx="2"
         height="12"
         fill="#57a4ff" />
      <path
         id="path112"
         fill="#2488ff"
         d="m43 21v8a2.006 2.006 0 0 1 -2 2h-4a2.006 2.006 0 0 0 2-2v-8a2.006 2.006 0 0 0 -2-2h4a2.006 2.006 0 0 1 2 2z" />
      <path
         id="path114"
         fill="#acabb1"
         d="m33 31h6v4h-6z" />
      <path
         id="path116"
         fill="#acabb1"
         d="m33 15h6v4h-6z" />
      <path
         id="path118"
         fill="#898890"
         d="m36 15h3v4h-3z" />
      <path
         id="path120"
         fill="#898890"
         d="m36 31h3v4h-3z" />
      <rect
         id="rect122"
         y="35"
         x="3"
         width="40"
         rx="2"
         height="12"
         fill="#57a4ff" />
      <path
         id="path124"
         fill="#2488ff"
         d="m43 37v8a2.006 2.006 0 0 1 -2 2h-4a2.006 2.006 0 0 0 2-2v-8a2.006 2.006 0 0 0 -2-2h4a2.006 2.006 0 0 1 2 2z" />
      <path
         id="path126"
         fill="#00b6bd"
         d="m15 39h4v4h-4z" />
      <path
         id="path128"
         fill="#00b6bd"
         d="m15 23h4v4h-4z" />
      <rect
         id="rect130"
         y="3"
         x="3"
         width="40"
         rx="2"
         height="12"
         fill="#57a4ff" />
      <path
         id="path132"
         fill="#2488ff"
         d="m43 5v8a2.006 2.006 0 0 1 -2 2h-4a2.006 2.006 0 0 0 2-2v-8a2.006 2.006 0 0 0 -2-2h4a2.006 2.006 0 0 1 2 2z" />
      <path
         id="path134"
         fill="#00b6bd"
         d="m15 7h4v4h-4z" />
      <path
         id="path136"
         fill="#acabb1"
         d="m7 31h6v4h-6z" />
      <path
         id="path138"
         fill="#acabb1"
         d="m7 15h6v4h-6z" />
      <path
         id="path140"
         fill="#898890"
         d="m10 15h3v4h-3z" />
      <path
         id="path142"
         fill="#898890"
         d="m10 31h3v4h-3z" />
      <path
         id="path144"
         fill="#ff7956"
         d="m7 39h4v4h-4z" />
      <path
         id="path146"
         fill="#ff7956"
         d="m7 23h4v4h-4z" />
      <path
         id="path148"
         fill="#ff7956"
         d="m7 7h4v4h-4z" />
      <path
         id="path150"
         fill="#ffde55"
         d="m61 46v10c0 2.76-8.06 5-18 5s-18-2.24-18-5v-10c0 2.76 8.06 5 18 5s18-2.24 18-5z" />
      <path
         id="path152"
         fill="#ffde55"
         d="m61 36v10c0 2.76-8.06 5-18 5s-18-2.24-18-5v-10c0 2.76 8.06 5 18 5s18-2.24 18-5z" />
      <path
         id="path154"
         fill="#ffde55"
         d="m61 26v10c0 2.76-8.06 5-18 5s-18-2.24-18-5v-10c0 2.76 8.06 5 18 5s18-2.24 18-5z" />
      <g
         id="g164"
         fill="#ffcd00">
        <ellipse
           id="ellipse156"
           ry="5"
           rx="18"
           cy="26"
           cx="43" />
        <path
           id="path158"
           d="m61 46v10c0 2.76-8.06 5-18 5-.68 0-1.34-.01-2-.04 9-.27 16-2.39 16-4.96v-6.86c2.5-.86 4-1.95 4-3.14z" />
        <path
           id="path160"
           d="m61 36v10c0 1.19-1.5 2.28-4 3.14a46.109 46.109 0 0 1 -14 1.86c-.68 0-1.34-.01-2-.04 9-.27 16-2.39 16-4.96v-6.86c2.5-.86 4-1.95 4-3.14z" />
        <path
           id="path162"
           d="m61 26v10c0 1.19-1.5 2.28-4 3.14a46.109 46.109 0 0 1 -14 1.86c-.68 0-1.34-.01-2-.04 9-.27 16-2.39 16-4.96v-6.86c2.5-.86 4-1.95 4-3.14z" />
      </g>
      <path
         id="path166"
         fill="#ebbf00"
         d="m61 26c0 1.19-1.5 2.28-4 3.14a46.109 46.109 0 0 1 -14 1.86c-.68 0-1.34-.01-2-.04 9-.27 16-2.39 16-4.96s-7-4.69-16-4.96c.66-.03 1.32-.04 2-.04 9.94 0 18 2.24 18 5z" />
      <path
         id="path168"
         fill="#ffde55"
         d="m57 46v3.14a46.109 46.109 0 0 1 -14 1.86c-.68 0-1.34-.01-2-.04 9-.27 16-2.39 16-4.96z" />
      <path
         id="path170"
         fill="#ffde55"
         d="m57 36v3.14a46.109 46.109 0 0 1 -14 1.86c-.68 0-1.34-.01-2-.04 9-.27 16-2.39 16-4.96z" />
      <path
         id="path172"
         d="m43.82 20.01a2.986 2.986 0 0 0 -2.82-2.01h-1v-2h1a3.009 3.009 0 0 0 3-3v-8a3.009 3.009 0 0 0 -3-3h-36a3.009 3.009 0 0 0 -3 3v8a3.009 3.009 0 0 0 3 3h1v2h-1a3.009 3.009 0 0 0 -3 3v8a3.009 3.009 0 0 0 3 3h1v2h-1a3.009 3.009 0 0 0 -3 3v8a3.009 3.009 0 0 0 3 3h19v8c0 3.94 9.56 6 19 6s19-2.06 19-6v-30c0-3.83-9.01-5.87-18.18-5.99zm-38.82-6.01a1 1 0 0 1 -1-1v-8a1 1 0 0 1 1-1h36a1 1 0 0 1 1 1v8a1 1 0 0 1 -1 1zm33 2v2h-4v-2zm-6 0v2h-18v-2zm-20 0v2h-4v-2zm12 30h-19a1 1 0 0 1 -1-1v-8a1 1 0 0 1 1-1h19zm-16-12v-2h4v2zm16 0h-10v-2h10zm0-8v4h-19a1 1 0 0 1 -1-1v-8a1 1 0 0 1 1-1h36a.7.7 0 0 1 .14.03c-8.8.25-17.14 2.29-17.14 5.97zm36 30c0 1.36-6 4-17 4s-17-2.64-17-4v-7.18c3.29 2.09 10.16 3.18 17 3.18s13.71-1.09 17-3.18zm0-10c0 1.36-6 4-17 4s-17-2.64-17-4v-7.18c3.29 2.09 10.16 3.18 17 3.18s13.71-1.09 17-3.18zm0-10c0 1.36-6 4-17 4s-17-2.64-17-4v-7.18c3.29 2.09 10.16 3.18 17 3.18s13.71-1.09 17-3.18zm-17-6c-11 0-17-2.64-17-4s6-4 17-4 17 2.64 17 4-6 4-17 4z" />
      <path
         id="path174"
         d="m42 35h2v2h-2z" />
      <path
         id="path176"
         d="m42 46h2v2h-2z" />
      <path
         id="path178"
         d="m42 55h2v2h-2z" />
      <path
         id="path180"
         d="m11 22h-4a1 1 0 0 0 -1 1v4a1 1 0 0 0 1 1h4a1 1 0 0 0 1-1v-4a1 1 0 0 0 -1-1zm-1 4h-2v-2h2z" />
      <path
         id="path182"
         d="m19 22h-4a1 1 0 0 0 -1 1v4a1 1 0 0 0 1 1h4a1 1 0 0 0 1-1v-4a1 1 0 0 0 -1-1zm-1 4h-2v-2h2z" />
      <path
         id="path184"
         d="m11 6h-4a1 1 0 0 0 -1 1v4a1 1 0 0 0 1 1h4a1 1 0 0 0 1-1v-4a1 1 0 0 0 -1-1zm-1 4h-2v-2h2z" />
      <path
         id="path186"
         d="m19 6h-4a1 1 0 0 0 -1 1v4a1 1 0 0 0 1 1h4a1 1 0 0 0 1-1v-4a1 1 0 0 0 -1-1zm-1 4h-2v-2h2z" />
      <path
         id="path188"
         d="m22 6h14v2h-14z" />
      <path
         id="path190"
         d="m38 6h2v2h-2z" />
      <path
         id="path192"
         d="m22 10h14v2h-14z" />
      <path
         id="path194"
         d="m38 10h2v2h-2z" />
      <path
         id="path196"
         d="m11 38h-4a1 1 0 0 0 -1 1v4a1 1 0 0 0 1 1h4a1 1 0 0 0 1-1v-4a1 1 0 0 0 -1-1zm-1 4h-2v-2h2z" />
      <path
         id="path198"
         d="m19 38h-4a1 1 0 0 0 -1 1v4a1 1 0 0 0 1 1h4a1 1 0 0 0 1-1v-4a1 1 0 0 0 -1-1zm-1 4h-2v-2h2z" />
    </g>
  </g>
</svg>
