<svg id="Capa_1" enable-background="new 0 0 507.251 507.251" height="512" viewBox="0 0 507.251 507.251" width="512" xmlns="http://www.w3.org/2000/svg"><g><g><g><path d="m92.938 248.553h-27.662c-4.255 0-7.704-3.449-7.704-7.704v-57.047c0-4.255 3.449-7.704 7.704-7.704h27.663c4.255 0 7.704 3.449 7.704 7.704v57.047c0 4.255-3.45 7.704-7.705 7.704z" fill="#766d78"/></g></g><g><g><path d="m441.975 248.553h-27.663c-4.255 0-7.704-3.449-7.704-7.704v-57.047c0-4.255 3.449-7.704 7.704-7.704h27.663c4.255 0 7.704 3.449 7.704 7.704v57.047c0 4.255-3.449 7.704-7.704 7.704z" fill="#766d78"/></g></g><g><g><path d="m410.479 273.729h-309.725v-107.183c0-10.091 8.18-18.271 18.271-18.271h273.183c10.091 0 18.271 8.18 18.271 18.271z" fill="#8c818f"/></g></g><g><g><path d="m148.215 7.5h210.82v311.73h-210.82z" fill="#f7f7f7"/></g></g><g><g><path d="m329.035 7.5h30v311.73h-30z" fill="#e8e8e8"/></g></g><g><g><path d="m314.066 220.681c.091 1.359.154 2.726.154 4.109 0 33.466-27.129 60.595-60.595 60.595s-60.595-27.129-60.595-60.595c0-1.382.063-2.749.154-4.109h-111.104c-14.016 0-25.527 11.077-26.064 25.083l-8.984 238.072c-.333 8.689 6.62 15.915 15.316 15.915h382.555c8.696 0 15.649-7.226 15.316-15.915l-8.984-238.072c-.538-14.006-12.048-25.083-26.064-25.083z" fill="#df646e"/></g></g><g><g><path d="m451.235 245.764c-.538-14.006-12.048-25.083-26.065-25.083h-30c14.016 0 25.527 11.077 26.065 25.083l8.984 238.072c.333 8.689-6.621 15.915-15.316 15.915h30c8.695 0 15.65-7.226 15.316-15.915z" fill="#dc4955"/></g></g><g><g><path d="m319.461 464.783h-131.672c-3.885 0-7.034-3.149-7.034-7.034v-13.691c0-3.885 3.149-7.034 7.034-7.034h131.672c3.885 0 7.034 3.149 7.034 7.034v13.691c.001 3.885-3.149 7.034-7.034 7.034z" fill="#f7f7f7"/></g></g><g><g><path d="m467.714 483.554-10.535-299.752c0-8.383-6.82-15.204-15.204-15.204h-23.996v-2.051c0-14.21-11.56-25.771-25.77-25.771h-25.673v-133.276c0-4.142-3.357-7.5-7.5-7.5h-210.82c-4.143 0-7.5 3.358-7.5 7.5v61.339c0 4.142 3.357 7.5 7.5 7.5s7.5-3.358 7.5-7.5v-53.839h195.82v198.181h-37.47c-2.077 0-4.061.861-5.479 2.378s-2.144 3.555-2.004 5.627c.094 1.387.138 2.532.138 3.603 0 26.72-19.844 48.883-45.566 52.552v-56.652c0-4.142-3.357-7.5-7.5-7.5s-7.5 3.358-7.5 7.5v56.66c-25.75-3.644-45.623-25.819-45.623-52.559 0-1.072.044-2.217.138-3.603.14-2.072-.586-4.11-2.004-5.627-1.419-1.517-3.402-2.378-5.479-2.378h-37.47v-114.343c0-4.142-3.357-7.5-7.5-7.5s-7.5 3.358-7.5 7.5v41.936h-21.69c-14.21 0-25.771 11.561-25.771 25.771v2.067c-.106-.002-.209-.015-.315-.015h-27.665c-8.384 0-15.204 6.821-15.204 15.204l-10.535 299.747c-.24 6.259 2.02 12.191 6.363 16.704s10.184 6.998 16.447 6.998h253.951c4.143 0 7.5-3.358 7.5-7.5s-3.357-7.5-7.5-7.5h-253.95c-2.147 0-4.15-.852-5.64-2.399-1.489-1.548-2.265-3.582-2.182-5.733l6.837-181.214h106.211c4.143 0 7.5-3.358 7.5-7.5s-3.357-7.5-7.5-7.5h-105.644l1.579-41.853c.386-10.021 8.542-17.871 18.57-17.871h103.534c1.773 35.979 31.601 64.704 68.012 64.704s66.238-28.725 68.012-64.704h103.534c8.117 0 15.004 5.145 17.54 12.416.015.038.027.078.042.116.573 1.678.916 3.468.987 5.334l1.583 41.933c-.331-.044-.666-.076-1.008-.076h-111.223c-4.143 0-7.5 3.358-7.5 7.5s3.357 7.5 7.5 7.5h111.223c.537 0 1.06-.059 1.565-.166l6.845 181.385c.082 2.147-.693 4.181-2.183 5.728-1.489 1.547-3.492 2.399-5.64 2.399h-98.603c-4.143 0-7.5 3.358-7.5 7.5s3.357 7.5 7.5 7.5h98.603c6.264 0 12.105-2.485 16.447-6.998 4.345-4.511 6.604-10.444 6.365-16.698zm-348.689-327.779h21.69v57.406h-32.461v-46.635c0-5.939 4.832-10.771 10.771-10.771zm-53.953 61.991v-33.964c0-.113.092-.204.204-.204h27.663c.031 0 .084 0 .143.059.056.056.116.103.173.156v29.368h-11.176c-6.209 0-12.021 1.667-17.007 4.585zm301.463-61.991h25.673c5.938 0 10.77 4.832 10.77 10.771v46.635h-36.443zm58.636 57.406h-7.192v-29.584h23.996c.112 0 .204.092.204.204v33.964c-4.987-2.917-10.798-4.584-17.008-4.584z"/></g><g><path d="m319.461 429.523h-131.672c-8.015 0-14.534 6.52-14.534 14.534v13.691c0 8.014 6.52 14.534 14.534 14.534h131.672c8.015 0 14.534-6.52 14.534-14.534v-13.691c0-8.014-6.519-14.534-14.534-14.534zm-.466 27.76h-130.74v-12.76h130.74z"/></g><g><path d="m100.583 350.429h14.931c4.143 0 7.5-3.358 7.5-7.5s-3.357-7.5-7.5-7.5h-14.931c-4.143 0-7.5 3.358-7.5 7.5 0 4.143 3.358 7.5 7.5 7.5z"/></g><g><path d="m164.039 335.429h-14.931c-4.143 0-7.5 3.358-7.5 7.5s3.357 7.5 7.5 7.5h14.931c4.143 0 7.5-3.358 7.5-7.5s-3.357-7.5-7.5-7.5z"/></g><g><path d="m197.634 350.429h14.931c4.143 0 7.5-3.358 7.5-7.5s-3.357-7.5-7.5-7.5h-14.931c-4.143 0-7.5 3.358-7.5 7.5 0 4.143 3.357 7.5 7.5 7.5z"/></g><g><path d="m246.159 350.429h14.932c4.143 0 7.5-3.358 7.5-7.5s-3.357-7.5-7.5-7.5h-14.932c-4.143 0-7.5 3.358-7.5 7.5 0 4.143 3.358 7.5 7.5 7.5z"/></g><g><path d="m294.686 350.429h14.931c4.143 0 7.5-3.358 7.5-7.5s-3.357-7.5-7.5-7.5h-14.931c-4.142 0-7.5 3.358-7.5 7.5 0 4.143 3.357 7.5 7.5 7.5z"/></g><g><path d="m343.211 350.429h14.931c4.143 0 7.5-3.358 7.5-7.5s-3.357-7.5-7.5-7.5h-14.931c-4.143 0-7.5 3.358-7.5 7.5 0 4.143 3.358 7.5 7.5 7.5z"/></g><g><path d="m391.737 350.429h14.931c4.143 0 7.5-3.358 7.5-7.5s-3.357-7.5-7.5-7.5h-14.931c-4.143 0-7.5 3.358-7.5 7.5 0 4.143 3.357 7.5 7.5 7.5z"/></g><g><path d="m100.583 381.891h14.931c4.143 0 7.5-3.358 7.5-7.5s-3.357-7.5-7.5-7.5h-14.931c-4.143 0-7.5 3.358-7.5 7.5s3.358 7.5 7.5 7.5z"/></g><g><path d="m164.039 366.891h-14.931c-4.143 0-7.5 3.358-7.5 7.5s3.357 7.5 7.5 7.5h14.931c4.143 0 7.5-3.358 7.5-7.5s-3.357-7.5-7.5-7.5z"/></g><g><path d="m197.634 381.891h14.931c4.143 0 7.5-3.358 7.5-7.5s-3.357-7.5-7.5-7.5h-14.931c-4.143 0-7.5 3.358-7.5 7.5s3.357 7.5 7.5 7.5z"/></g><g><path d="m246.159 381.891h14.932c4.143 0 7.5-3.358 7.5-7.5s-3.357-7.5-7.5-7.5h-14.932c-4.143 0-7.5 3.358-7.5 7.5s3.358 7.5 7.5 7.5z"/></g><g><path d="m294.686 381.891h14.931c4.143 0 7.5-3.358 7.5-7.5s-3.357-7.5-7.5-7.5h-14.931c-4.142 0-7.5 3.358-7.5 7.5s3.357 7.5 7.5 7.5z"/></g><g><path d="m343.211 381.891h14.931c4.143 0 7.5-3.358 7.5-7.5s-3.357-7.5-7.5-7.5h-14.931c-4.143 0-7.5 3.358-7.5 7.5s3.358 7.5 7.5 7.5z"/></g><g><path d="m391.737 381.891h14.931c4.143 0 7.5-3.358 7.5-7.5s-3.357-7.5-7.5-7.5h-14.931c-4.143 0-7.5 3.358-7.5 7.5s3.357 7.5 7.5 7.5z"/></g><g><path d="m100.583 413.353h14.931c4.143 0 7.5-3.358 7.5-7.5s-3.357-7.5-7.5-7.5h-14.931c-4.143 0-7.5 3.358-7.5 7.5s3.358 7.5 7.5 7.5z"/></g><g><path d="m171.539 405.853c0-4.142-3.357-7.5-7.5-7.5h-14.931c-4.143 0-7.5 3.358-7.5 7.5s3.357 7.5 7.5 7.5h14.931c4.143 0 7.5-3.358 7.5-7.5z"/></g><g><path d="m197.634 413.353h14.931c4.143 0 7.5-3.358 7.5-7.5s-3.357-7.5-7.5-7.5h-14.931c-4.143 0-7.5 3.358-7.5 7.5s3.357 7.5 7.5 7.5z"/></g><g><path d="m246.159 413.353h14.932c4.143 0 7.5-3.358 7.5-7.5s-3.357-7.5-7.5-7.5h-14.932c-4.143 0-7.5 3.358-7.5 7.5s3.358 7.5 7.5 7.5z"/></g><g><path d="m294.686 413.353h14.931c4.143 0 7.5-3.358 7.5-7.5s-3.357-7.5-7.5-7.5h-14.931c-4.142 0-7.5 3.358-7.5 7.5s3.357 7.5 7.5 7.5z"/></g><g><path d="m358.142 413.353c4.143 0 7.5-3.358 7.5-7.5s-3.357-7.5-7.5-7.5h-14.931c-4.143 0-7.5 3.358-7.5 7.5s3.357 7.5 7.5 7.5z"/></g><g><path d="m391.737 413.353h14.931c4.143 0 7.5-3.358 7.5-7.5s-3.357-7.5-7.5-7.5h-14.931c-4.143 0-7.5 3.358-7.5 7.5s3.357 7.5 7.5 7.5z"/></g><g><path d="m100.583 455.573h41.514c4.143 0 7.5-3.358 7.5-7.5s-3.357-7.5-7.5-7.5h-41.514c-4.143 0-7.5 3.358-7.5 7.5s3.358 7.5 7.5 7.5z"/></g><g><path d="m357.654 448.073c0 4.142 3.357 7.5 7.5 7.5h41.514c4.143 0 7.5-3.358 7.5-7.5s-3.357-7.5-7.5-7.5h-41.514c-4.143 0-7.5 3.357-7.5 7.5z"/></g><g><path d="m190.951 65.979h31.883c4.143 0 7.5-3.358 7.5-7.5s-3.357-7.5-7.5-7.5h-31.883c-4.143 0-7.5 3.358-7.5 7.5s3.358 7.5 7.5 7.5z"/></g><g><path d="m316.299 172.016h-31.883c-4.143 0-7.5 3.358-7.5 7.5s3.357 7.5 7.5 7.5h31.883c4.143 0 7.5-3.358 7.5-7.5s-3.357-7.5-7.5-7.5z"/></g><g><path d="m190.951 97.271h125.348c4.143 0 7.5-3.358 7.5-7.5s-3.357-7.5-7.5-7.5h-125.348c-4.143 0-7.5 3.358-7.5 7.5s3.358 7.5 7.5 7.5z"/></g><g><path d="m190.951 127.383h125.348c4.143 0 7.5-3.358 7.5-7.5s-3.357-7.5-7.5-7.5h-125.348c-4.143 0-7.5 3.358-7.5 7.5s3.358 7.5 7.5 7.5z"/></g><g><path d="m190.951 157.494h125.348c4.143 0 7.5-3.358 7.5-7.5s-3.357-7.5-7.5-7.5h-125.348c-4.143 0-7.5 3.358-7.5 7.5s3.358 7.5 7.5 7.5z"/></g></g></g></svg>